<svg width="257" height="195" viewBox="0 0 257 195" fill="none" xmlns="http://www.w3.org/2000/svg">
<rect y="87" width="257" height="82" fill="white"/>
<path d="M19.7689 74V20.8H43.9369C49.7129 20.8 54.8049 21.9147 59.2129 24.144C63.6209 26.3227 67.0663 29.388 69.5489 33.34C72.0316 37.292 73.2729 41.9787 73.2729 47.4C73.2729 52.7707 72.0316 57.4573 69.5489 61.46C67.0663 65.412 63.6209 68.5027 59.2129 70.732C54.8049 72.9107 49.7129 74 43.9369 74H19.7689ZM32.0809 63.892H43.3289C46.8756 63.892 49.9409 63.2333 52.5249 61.916C55.1596 60.548 57.1863 58.6227 58.6049 56.14C60.0743 53.6573 60.8089 50.744 60.8089 47.4C60.8089 44.0053 60.0743 41.092 58.6049 38.66C57.1863 36.1773 55.1596 34.2773 52.5249 32.96C49.9409 31.592 46.8756 30.908 43.3289 30.908H32.0809V63.892ZM74.8238 74L98.5358 20.8H110.696L134.484 74H121.564L102.108 27.032H106.972L87.4398 74H74.8238ZM86.6798 62.6L89.9478 53.252H117.308L120.652 62.6H86.6798ZM157.483 74.912C153.227 74.912 149.149 74.3547 145.247 73.24C141.346 72.0747 138.205 70.58 135.823 68.756L140.003 59.484C142.283 61.1053 144.969 62.448 148.059 63.512C151.201 64.5253 154.367 65.032 157.559 65.032C159.991 65.032 161.942 64.804 163.411 64.348C164.931 63.8413 166.046 63.1573 166.755 62.296C167.465 61.4347 167.819 60.4467 167.819 59.332C167.819 57.9133 167.262 56.7987 166.147 55.988C165.033 55.1267 163.563 54.4427 161.739 53.936C159.915 53.3787 157.889 52.872 155.659 52.416C153.481 51.9093 151.277 51.3013 149.047 50.592C146.869 49.8827 144.867 48.9707 143.043 47.856C141.219 46.7413 139.725 45.272 138.559 43.448C137.445 41.624 136.887 39.2933 136.887 36.456C136.887 33.416 137.698 30.6547 139.319 28.172C140.991 25.6387 143.474 23.6373 146.767 22.168C150.111 20.648 154.291 19.888 159.307 19.888C162.651 19.888 165.945 20.2933 169.187 21.104C172.43 21.864 175.293 23.0293 177.775 24.6L173.975 33.948C171.493 32.5293 169.01 31.4907 166.527 30.832C164.045 30.1227 161.613 29.768 159.231 29.768C156.85 29.768 154.899 30.0467 153.379 30.604C151.859 31.1613 150.77 31.896 150.111 32.808C149.453 33.6693 149.123 34.6827 149.123 35.848C149.123 37.216 149.681 38.3307 150.795 39.192C151.91 40.0027 153.379 40.6613 155.203 41.168C157.027 41.6747 159.029 42.1813 161.207 42.688C163.437 43.1947 165.641 43.7773 167.819 44.436C170.049 45.0947 172.075 45.9813 173.899 47.096C175.723 48.2107 177.193 49.68 178.307 51.504C179.473 53.328 180.055 55.6333 180.055 58.42C180.055 61.4093 179.219 64.1453 177.547 66.628C175.875 69.1107 173.367 71.112 170.023 72.632C166.73 74.152 162.55 74.912 157.483 74.912ZM224.948 20.8H237.26V74H224.948V20.8ZM200.78 74H188.468V20.8H200.78V74ZM225.86 52.188H199.868V41.776H225.86V52.188Z" fill="white"/>
<path d="M16.2604 150V106.6H34.9844C39.8204 106.6 43.5611 107.571 46.2064 109.514C48.8931 111.457 50.2364 114.205 50.2364 117.76C50.2364 120.116 49.6784 122.1 48.5624 123.712C47.4877 125.324 45.9997 126.543 44.0984 127.37C42.2384 128.197 40.1924 128.61 37.9604 128.61L39.0144 127.122C41.7837 127.122 44.1604 127.556 46.1444 128.424C48.1697 129.251 49.7404 130.511 50.8564 132.206C51.9724 133.859 52.5304 135.926 52.5304 138.406C52.5304 142.085 51.1664 144.937 48.4384 146.962C45.7517 148.987 41.6804 150 36.2244 150H16.2604ZM20.8484 146.218H36.1624C39.9651 146.218 42.8791 145.577 44.9044 144.296C46.9297 142.973 47.9424 140.886 47.9424 138.034C47.9424 135.223 46.9297 133.177 44.9044 131.896C42.8791 130.573 39.9651 129.912 36.1624 129.912H20.3524V126.13H34.6744C38.1464 126.13 40.8331 125.469 42.7344 124.146C44.677 122.823 45.6484 120.86 45.6484 118.256C45.6484 115.611 44.677 113.647 42.7344 112.366C40.8331 111.043 38.1464 110.382 34.6744 110.382H20.8484V146.218ZM81.9746 150.372C78.7092 150.372 75.6712 149.835 72.8606 148.76C70.0912 147.644 67.6732 146.094 65.6066 144.11C63.5812 142.085 61.9899 139.749 60.8326 137.104C59.7166 134.417 59.1586 131.483 59.1586 128.3C59.1586 125.117 59.7166 122.203 60.8326 119.558C61.9899 116.871 63.5812 114.536 65.6066 112.552C67.6732 110.527 70.0912 108.977 72.8606 107.902C75.6299 106.786 78.6679 106.228 81.9746 106.228C85.2399 106.228 88.2572 106.786 91.0266 107.902C93.7959 108.977 96.1932 110.506 98.2186 112.49C100.285 114.474 101.877 116.809 102.993 119.496C104.15 122.183 104.729 125.117 104.729 128.3C104.729 131.483 104.15 134.417 102.993 137.104C101.877 139.791 100.285 142.126 98.2186 144.11C96.1932 146.094 93.7959 147.644 91.0266 148.76C88.2572 149.835 85.2399 150.372 81.9746 150.372ZM81.9746 146.28C84.5786 146.28 86.9759 145.846 89.1666 144.978C91.3986 144.069 93.3206 142.808 94.9326 141.196C96.5859 139.543 97.8672 137.641 98.7766 135.492C99.6859 133.301 100.141 130.904 100.141 128.3C100.141 125.696 99.6859 123.319 98.7766 121.17C97.8672 118.979 96.5859 117.078 94.9326 115.466C93.3206 113.813 91.3986 112.552 89.1666 111.684C86.9759 110.775 84.5786 110.32 81.9746 110.32C79.3706 110.32 76.9526 110.775 74.7206 111.684C72.4886 112.552 70.5459 113.813 68.8926 115.466C67.2806 117.078 65.9992 118.979 65.0486 121.17C64.1392 123.319 63.6846 125.696 63.6846 128.3C63.6846 130.863 64.1392 133.239 65.0486 135.43C65.9992 137.621 67.2806 139.543 68.8926 141.196C70.5459 142.808 72.4886 144.069 74.7206 144.978C76.9526 145.846 79.3706 146.28 81.9746 146.28ZM107.463 150L127.303 106.6H131.829L151.669 150H146.833L128.605 109.266H130.465L112.237 150H107.463ZM115.275 138.406L116.639 134.686H141.873L143.237 138.406H115.275ZM158.848 150V106.6H175.092C178.771 106.6 181.933 107.199 184.578 108.398C187.224 109.555 189.249 111.25 190.654 113.482C192.101 115.673 192.824 118.339 192.824 121.48C192.824 124.539 192.101 127.184 190.654 129.416C189.249 131.607 187.224 133.301 184.578 134.5C181.933 135.657 178.771 136.236 175.092 136.236H161.39L163.436 134.128V150H158.848ZM188.484 150L177.324 134.252H182.284L193.506 150H188.484ZM163.436 134.5L161.39 132.33H174.968C179.308 132.33 182.594 131.379 184.826 129.478C187.1 127.577 188.236 124.911 188.236 121.48C188.236 118.008 187.1 115.321 184.826 113.42C182.594 111.519 179.308 110.568 174.968 110.568H161.39L163.436 108.398V134.5ZM203.653 150V106.6H221.323C225.952 106.6 230.003 107.53 233.475 109.39C236.988 111.209 239.716 113.751 241.659 117.016C243.602 120.281 244.573 124.043 244.573 128.3C244.573 132.557 243.602 136.319 241.659 139.584C239.716 142.849 236.988 145.412 233.475 147.272C230.003 149.091 225.952 150 221.323 150H203.653ZM208.241 146.032H221.075C224.919 146.032 228.246 145.288 231.057 143.8C233.909 142.271 236.12 140.183 237.691 137.538C239.262 134.851 240.047 131.772 240.047 128.3C240.047 124.787 239.262 121.707 237.691 119.062C236.12 116.417 233.909 114.35 231.057 112.862C228.246 111.333 224.919 110.568 221.075 110.568H208.241V146.032Z" fill="#242424"/>
<path d="M91.9354 191V179.8H97.9194C99.4661 179.8 100.607 180.077 101.343 180.632C102.079 181.176 102.447 181.875 102.447 182.728C102.447 183.293 102.287 183.8 101.967 184.248C101.658 184.685 101.205 185.032 100.607 185.288C100.01 185.544 99.2741 185.672 98.3994 185.672L98.7194 184.808C99.5941 184.808 100.346 184.931 100.975 185.176C101.615 185.421 102.106 185.779 102.447 186.248C102.799 186.707 102.975 187.261 102.975 187.912C102.975 188.883 102.57 189.64 101.759 190.184C100.959 190.728 99.7861 191 98.2394 191H91.9354ZM95.6474 188.36H97.9194C98.3354 188.36 98.6448 188.285 98.8474 188.136C99.0608 187.987 99.1674 187.768 99.1674 187.48C99.1674 187.192 99.0608 186.973 98.8474 186.824C98.6448 186.675 98.3354 186.6 97.9194 186.6H95.3914V184.104H97.4074C97.8341 184.104 98.1434 184.035 98.3354 183.896C98.5381 183.747 98.6394 183.539 98.6394 183.272C98.6394 182.995 98.5381 182.787 98.3354 182.648C98.1434 182.509 97.8341 182.44 97.4074 182.44H95.6474V188.36ZM106.956 191V186.088L107.82 188.344L102.732 179.8H106.716L110.156 185.64H107.836L111.308 179.8H114.956L109.9 188.344L110.732 186.088V191H106.956ZM123.752 184.568H128.68V187.416H123.752V184.568ZM124.008 191H120.232V179.8H129.336V182.648H124.008V191ZM136.323 191.256C135.416 191.256 134.574 191.112 133.795 190.824C133.027 190.536 132.36 190.131 131.795 189.608C131.23 189.075 130.787 188.451 130.467 187.736C130.158 187.021 130.003 186.243 130.003 185.4C130.003 184.547 130.158 183.768 130.467 183.064C130.787 182.349 131.23 181.731 131.795 181.208C132.36 180.675 133.027 180.264 133.795 179.976C134.574 179.688 135.416 179.544 136.323 179.544C137.24 179.544 138.083 179.688 138.851 179.976C139.619 180.264 140.286 180.675 140.851 181.208C141.416 181.731 141.854 182.349 142.163 183.064C142.483 183.768 142.643 184.547 142.643 185.4C142.643 186.243 142.483 187.021 142.163 187.736C141.854 188.451 141.416 189.075 140.851 189.608C140.286 190.131 139.619 190.536 138.851 190.824C138.083 191.112 137.24 191.256 136.323 191.256ZM136.323 188.2C136.675 188.2 137 188.136 137.299 188.008C137.608 187.88 137.875 187.699 138.099 187.464C138.334 187.219 138.515 186.925 138.643 186.584C138.771 186.232 138.835 185.837 138.835 185.4C138.835 184.963 138.771 184.573 138.643 184.232C138.515 183.88 138.334 183.587 138.099 183.352C137.875 183.107 137.608 182.92 137.299 182.792C137 182.664 136.675 182.6 136.323 182.6C135.971 182.6 135.64 182.664 135.331 182.792C135.032 182.92 134.766 183.107 134.531 183.352C134.307 183.587 134.131 183.88 134.003 184.232C133.875 184.573 133.811 184.963 133.811 185.4C133.811 185.837 133.875 186.232 134.003 186.584C134.131 186.925 134.307 187.219 134.531 187.464C134.766 187.699 135.032 187.88 135.331 188.008C135.64 188.136 135.971 188.2 136.323 188.2ZM149.374 191.256C147.656 191.256 146.318 190.792 145.358 189.864C144.398 188.936 143.918 187.635 143.918 185.96V179.8H147.694V185.848C147.694 186.701 147.848 187.309 148.158 187.672C148.467 188.024 148.883 188.2 149.406 188.2C149.939 188.2 150.355 188.024 150.654 187.672C150.963 187.309 151.118 186.701 151.118 185.848V179.8H154.83V185.96C154.83 187.635 154.35 188.936 153.39 189.864C152.43 190.792 151.091 191.256 149.374 191.256ZM156.56 191V179.8H161.952C162.998 179.8 163.899 179.971 164.656 180.312C165.424 180.653 166.016 181.144 166.432 181.784C166.848 182.413 167.056 183.16 167.056 184.024C167.056 184.888 166.848 185.635 166.432 186.264C166.016 186.883 165.424 187.357 164.656 187.688C163.899 188.019 162.998 188.184 161.952 188.184H158.656L160.336 186.632V191H156.56ZM163.264 191L160.512 186.92H164.512L167.296 191H163.264ZM160.336 187.048L158.656 185.336H161.712C162.235 185.336 162.619 185.219 162.864 184.984C163.12 184.749 163.248 184.429 163.248 184.024C163.248 183.619 163.12 183.299 162.864 183.064C162.619 182.829 162.235 182.712 161.712 182.712H158.656L160.336 181V187.048ZM172.658 191.256C171.72 191.256 170.813 191.149 169.938 190.936C169.064 190.723 168.344 190.445 167.778 190.104L168.994 187.352C169.528 187.661 170.12 187.912 170.77 188.104C171.432 188.285 172.072 188.376 172.69 188.376C173.053 188.376 173.336 188.355 173.538 188.312C173.752 188.259 173.906 188.189 174.002 188.104C174.098 188.008 174.146 187.896 174.146 187.768C174.146 187.565 174.034 187.405 173.81 187.288C173.586 187.171 173.288 187.075 172.914 187C172.552 186.915 172.152 186.829 171.714 186.744C171.277 186.648 170.834 186.525 170.386 186.376C169.949 186.227 169.544 186.029 169.17 185.784C168.808 185.539 168.514 185.219 168.29 184.824C168.066 184.419 167.954 183.917 167.954 183.32C167.954 182.627 168.146 181.997 168.53 181.432C168.925 180.856 169.506 180.397 170.274 180.056C171.053 179.715 172.018 179.544 173.17 179.544C173.928 179.544 174.674 179.624 175.41 179.784C176.146 179.944 176.808 180.189 177.394 180.52L176.258 183.256C175.704 182.979 175.165 182.771 174.642 182.632C174.13 182.493 173.629 182.424 173.138 182.424C172.776 182.424 172.488 182.456 172.274 182.52C172.061 182.584 171.906 182.669 171.81 182.776C171.725 182.883 171.682 183 171.682 183.128C171.682 183.32 171.794 183.475 172.018 183.592C172.242 183.699 172.536 183.789 172.898 183.864C173.272 183.939 173.677 184.019 174.114 184.104C174.562 184.189 175.005 184.307 175.442 184.456C175.88 184.605 176.28 184.803 176.642 185.048C177.016 185.293 177.314 185.613 177.538 186.008C177.762 186.403 177.874 186.893 177.874 187.48C177.874 188.163 177.677 188.792 177.282 189.368C176.898 189.933 176.322 190.392 175.554 190.744C174.786 191.085 173.821 191.256 172.658 191.256ZM184.87 191.256C183.963 191.256 183.121 191.112 182.342 190.824C181.574 190.536 180.907 190.131 180.342 189.608C179.777 189.075 179.334 188.451 179.014 187.736C178.705 187.021 178.55 186.243 178.55 185.4C178.55 184.547 178.705 183.768 179.014 183.064C179.334 182.349 179.777 181.731 180.342 181.208C180.907 180.675 181.574 180.264 182.342 179.976C183.121 179.688 183.963 179.544 184.87 179.544C185.787 179.544 186.63 179.688 187.398 179.976C188.166 180.264 188.833 180.675 189.398 181.208C189.963 181.731 190.401 182.349 190.71 183.064C191.03 183.768 191.19 184.547 191.19 185.4C191.19 186.243 191.03 187.021 190.71 187.736C190.401 188.451 189.963 189.075 189.398 189.608C188.833 190.131 188.166 190.536 187.398 190.824C186.63 191.112 185.787 191.256 184.87 191.256ZM184.87 188.2C185.222 188.2 185.547 188.136 185.846 188.008C186.155 187.88 186.422 187.699 186.646 187.464C186.881 187.219 187.062 186.925 187.19 186.584C187.318 186.232 187.382 185.837 187.382 185.4C187.382 184.963 187.318 184.573 187.19 184.232C187.062 183.88 186.881 183.587 186.646 183.352C186.422 183.107 186.155 182.92 185.846 182.792C185.547 182.664 185.222 182.6 184.87 182.6C184.518 182.6 184.187 182.664 183.878 182.792C183.579 182.92 183.313 183.107 183.078 183.352C182.854 183.587 182.678 183.88 182.55 184.232C182.422 184.573 182.358 184.963 182.358 185.4C182.358 185.837 182.422 186.232 182.55 186.584C182.678 186.925 182.854 187.219 183.078 187.464C183.313 187.699 183.579 187.88 183.878 188.008C184.187 188.136 184.518 188.2 184.87 188.2ZM196.08 184.568H201.008V187.416H196.08V184.568ZM196.336 191H192.56V179.8H201.664V182.648H196.336V191ZM205.367 191V182.728H202.087V179.8H212.423V182.728H209.143V191H205.367ZM214.362 191.16C213.764 191.16 213.263 190.968 212.858 190.584C212.452 190.189 212.25 189.688 212.25 189.08C212.25 188.461 212.452 187.965 212.858 187.592C213.263 187.219 213.764 187.032 214.362 187.032C214.959 187.032 215.46 187.219 215.866 187.592C216.271 187.965 216.474 188.461 216.474 189.08C216.474 189.688 216.271 190.189 215.866 190.584C215.46 190.968 214.959 191.16 214.362 191.16ZM223.181 191.256C222.285 191.256 221.453 191.117 220.685 190.84C219.927 190.552 219.266 190.147 218.701 189.624C218.146 189.101 217.714 188.483 217.405 187.768C217.095 187.053 216.941 186.264 216.941 185.4C216.941 184.536 217.095 183.747 217.405 183.032C217.714 182.317 218.146 181.699 218.701 181.176C219.266 180.653 219.927 180.253 220.685 179.976C221.453 179.688 222.285 179.544 223.181 179.544C224.279 179.544 225.25 179.736 226.093 180.12C226.946 180.504 227.65 181.059 228.205 181.784L225.821 183.912C225.49 183.496 225.122 183.176 224.717 182.952C224.322 182.717 223.874 182.6 223.373 182.6C222.978 182.6 222.621 182.664 222.301 182.792C221.981 182.92 221.703 183.107 221.469 183.352C221.245 183.597 221.069 183.896 220.941 184.248C220.813 184.589 220.749 184.973 220.749 185.4C220.749 185.827 220.813 186.216 220.941 186.568C221.069 186.909 221.245 187.203 221.469 187.448C221.703 187.693 221.981 187.88 222.301 188.008C222.621 188.136 222.978 188.2 223.373 188.2C223.874 188.2 224.322 188.088 224.717 187.864C225.122 187.629 225.49 187.304 225.821 186.888L228.205 189.016C227.65 189.731 226.946 190.285 226.093 190.68C225.25 191.064 224.279 191.256 223.181 191.256ZM234.932 191.256C234.026 191.256 233.183 191.112 232.404 190.824C231.636 190.536 230.97 190.131 230.404 189.608C229.839 189.075 229.396 188.451 229.076 187.736C228.767 187.021 228.612 186.243 228.612 185.4C228.612 184.547 228.767 183.768 229.076 183.064C229.396 182.349 229.839 181.731 230.404 181.208C230.97 180.675 231.636 180.264 232.404 179.976C233.183 179.688 234.026 179.544 234.932 179.544C235.85 179.544 236.692 179.688 237.46 179.976C238.228 180.264 238.895 180.675 239.46 181.208C240.026 181.731 240.463 182.349 240.772 183.064C241.092 183.768 241.252 184.547 241.252 185.4C241.252 186.243 241.092 187.021 240.772 187.736C240.463 188.451 240.026 189.075 239.46 189.608C238.895 190.131 238.228 190.536 237.46 190.824C236.692 191.112 235.85 191.256 234.932 191.256ZM234.932 188.2C235.284 188.2 235.61 188.136 235.908 188.008C236.218 187.88 236.484 187.699 236.708 187.464C236.943 187.219 237.124 186.925 237.252 186.584C237.38 186.232 237.444 185.837 237.444 185.4C237.444 184.963 237.38 184.573 237.252 184.232C237.124 183.88 236.943 183.587 236.708 183.352C236.484 183.107 236.218 182.92 235.908 182.792C235.61 182.664 235.284 182.6 234.932 182.6C234.58 182.6 234.25 182.664 233.94 182.792C233.642 182.92 233.375 183.107 233.14 183.352C232.916 183.587 232.74 183.88 232.612 184.232C232.484 184.573 232.42 184.963 232.42 185.4C232.42 185.837 232.484 186.232 232.612 186.584C232.74 186.925 232.916 187.219 233.14 187.464C233.375 187.699 233.642 187.88 233.94 188.008C234.25 188.136 234.58 188.2 234.932 188.2ZM242.623 191V179.8H245.727L250.207 187.112H248.575L252.927 179.8H256.031L256.063 191H252.623L252.591 184.984H253.135L250.159 189.992H248.495L245.391 184.984H246.063V191H242.623Z" fill="white"/>
</svg>
