<svg width="326" height="230" viewBox="0 0 326 230" fill="none" xmlns="http://www.w3.org/2000/svg">
<rect y="115" width="326" height="115" rx="5" fill="white"/>
<path d="M24.556 204C23.9493 204 23.464 203.818 23.1 203.454C22.736 203.09 22.554 202.605 22.554 201.998V142.393C22.554 141.726 22.736 141.21 23.1 140.846C23.464 140.482 23.9493 140.3 24.556 140.3H48.307C52.5537 140.3 56.0117 141.058 58.681 142.575C61.411 144.092 63.413 146.094 64.687 148.581C65.961 151.008 66.598 153.677 66.598 156.589C66.598 159.198 66.1733 161.442 65.324 163.323C64.5353 165.143 63.504 166.629 62.23 167.782C61.0167 168.935 59.8033 169.814 58.59 170.421C61.0167 171.634 63.1703 173.576 65.051 176.245C66.9317 178.914 67.872 182.16 67.872 185.982C67.872 189.015 67.144 191.927 65.688 194.718C64.2927 197.448 62.1693 199.693 59.318 201.452C56.5273 203.151 53.0693 204 48.944 204H24.556ZM28.287 198.54H48.034C52.5233 198.54 55.9813 197.357 58.408 194.991C60.8953 192.625 62.139 189.622 62.139 185.982C62.139 182.281 60.8953 179.278 58.408 176.973C55.9813 174.607 52.5233 173.424 48.034 173.424H28.287V198.54ZM28.287 167.964H47.124C51.6133 167.964 55.0107 166.963 57.316 164.961C59.682 162.959 60.865 160.168 60.865 156.589C60.865 153.01 59.682 150.31 57.316 148.49C55.0107 146.67 51.6133 145.76 47.124 145.76H28.287V167.964ZM103.573 204.91C98.5378 204.91 94.2608 204.03 90.7421 202.271C87.2235 200.451 84.5238 197.691 82.6431 193.99C80.7625 190.229 79.7311 185.497 79.5491 179.794C79.4885 177.064 79.4581 174.516 79.4581 172.15C79.4581 169.784 79.4885 167.236 79.5491 164.506C79.7311 158.864 80.8231 154.193 82.8251 150.492C84.8271 146.731 87.5875 143.94 91.1061 142.12C94.6855 140.3 98.8412 139.39 103.573 139.39C108.305 139.39 112.43 140.3 115.949 142.12C119.528 143.94 122.319 146.731 124.321 150.492C126.384 154.193 127.476 158.864 127.597 164.506C127.718 167.236 127.779 169.784 127.779 172.15C127.779 174.516 127.718 177.064 127.597 179.794C127.476 185.497 126.444 190.229 124.503 193.99C122.622 197.691 119.923 200.451 116.404 202.271C112.885 204.03 108.608 204.91 103.573 204.91ZM103.573 199.45C108.79 199.45 113.067 197.873 116.404 194.718C119.801 191.563 121.621 186.437 121.864 179.339C121.985 176.609 122.046 174.213 122.046 172.15C122.046 170.087 121.985 167.691 121.864 164.961C121.743 160.229 120.863 156.377 119.225 153.404C117.648 150.431 115.494 148.278 112.764 146.943C110.095 145.548 107.031 144.85 103.573 144.85C100.176 144.85 97.1121 145.548 94.3821 146.943C91.7128 148.278 89.5591 150.431 87.9211 153.404C86.3438 156.377 85.4641 160.229 85.2821 164.961C85.2215 167.691 85.1911 170.087 85.1911 172.15C85.1911 174.213 85.2215 176.609 85.2821 179.339C85.5248 186.437 87.3448 191.563 90.7421 194.718C94.1395 197.873 98.4165 199.45 103.573 199.45ZM136.642 204C136.156 204 135.732 203.818 135.368 203.454C135.004 203.09 134.822 202.665 134.822 202.18C134.822 201.877 134.882 201.543 135.004 201.179L158.027 142.12C158.269 141.513 158.573 141.058 158.937 140.755C159.361 140.452 159.938 140.3 160.666 140.3H163.76C164.488 140.3 165.034 140.452 165.398 140.755C165.822 141.058 166.156 141.513 166.399 142.12L189.422 201.179C189.543 201.543 189.604 201.877 189.604 202.18C189.604 202.665 189.422 203.09 189.058 203.454C188.694 203.818 188.269 204 187.784 204H185.964C185.357 204 184.902 203.848 184.599 203.545C184.295 203.181 184.083 202.878 183.962 202.635L178.32 188.075H146.106L140.464 202.635C140.403 202.878 140.191 203.181 139.827 203.545C139.523 203.848 139.068 204 138.462 204H136.642ZM148.29 182.615H176.136L162.213 146.761L148.29 182.615ZM202.379 204C201.773 204 201.287 203.818 200.923 203.454C200.559 203.09 200.377 202.605 200.377 201.998V142.393C200.377 141.726 200.559 141.21 200.923 140.846C201.287 140.482 201.773 140.3 202.379 140.3H223.582C229.952 140.3 235.018 141.817 238.779 144.85C242.601 147.883 244.512 152.494 244.512 158.682C244.512 163.535 243.299 167.418 240.872 170.33C238.446 173.242 235.079 175.214 230.771 176.245L245.422 201.179C245.604 201.543 245.695 201.877 245.695 202.18C245.695 202.665 245.513 203.09 245.149 203.454C244.785 203.818 244.361 204 243.875 204H242.783C241.813 204 241.085 203.757 240.599 203.272C240.114 202.726 239.689 202.15 239.325 201.543L224.856 177.064H206.11V201.998C206.11 202.605 205.928 203.09 205.564 203.454C205.2 203.818 204.685 204 204.017 204H202.379ZM206.11 171.604H223.127C228.405 171.604 232.318 170.542 234.866 168.419C237.475 166.235 238.779 162.989 238.779 158.682C238.779 154.375 237.475 151.159 234.866 149.036C232.318 146.852 228.405 145.76 223.127 145.76H206.11V171.604ZM260.587 204C259.981 204 259.495 203.818 259.131 203.454C258.767 203.09 258.585 202.605 258.585 201.998V142.393C258.585 141.726 258.767 141.21 259.131 140.846C259.495 140.482 259.981 140.3 260.587 140.3H279.97C286.401 140.3 291.436 141.24 295.076 143.121C298.716 145.002 301.295 147.792 302.811 151.493C304.389 155.133 305.208 159.592 305.268 164.87C305.329 167.6 305.359 170.027 305.359 172.15C305.359 174.213 305.329 176.609 305.268 179.339C305.147 184.92 304.328 189.531 302.811 193.171C301.295 196.811 298.747 199.541 295.167 201.361C291.588 203.12 286.674 204 280.425 204H260.587ZM264.318 198.54H279.97C284.824 198.54 288.646 197.903 291.436 196.629C294.288 195.294 296.32 193.201 297.533 190.35C298.807 187.438 299.475 183.616 299.535 178.884C299.596 177.064 299.626 175.487 299.626 174.152C299.626 172.757 299.626 171.392 299.626 170.057C299.626 168.722 299.596 167.145 299.535 165.325C299.414 158.652 297.867 153.738 294.894 150.583C291.922 147.368 286.795 145.76 279.515 145.76H264.318V198.54Z" fill="#242424"/>
<path d="M24.593 94C23.8083 94 23.1663 93.7503 22.667 93.251C22.1677 92.7517 21.918 92.1097 21.918 91.325V21.775C21.918 20.9903 22.1677 20.3483 22.667 19.849C23.1663 19.3497 23.8083 19.1 24.593 19.1H51.45C58.5833 19.1 64.5397 20.2413 69.319 22.524C74.0983 24.7353 77.7363 28.0167 80.233 32.368C82.801 36.648 84.1563 41.9623 84.299 48.311C84.3703 51.4497 84.406 54.196 84.406 56.55C84.406 58.904 84.3703 61.6147 84.299 64.682C84.085 71.316 82.7653 76.8087 80.34 81.16C77.9147 85.5113 74.348 88.757 69.64 90.897C64.932 92.9657 59.047 94 51.985 94H24.593ZM38.931 80.197H51.45C55.0167 80.197 57.9413 79.662 60.224 78.592C62.5067 77.522 64.183 75.8457 65.253 73.563C66.3943 71.209 67.0007 68.1773 67.072 64.468C67.1433 62.3993 67.179 60.5447 67.179 58.904C67.2503 57.2633 67.2503 55.6227 67.179 53.982C67.179 52.3413 67.1433 50.5223 67.072 48.525C66.9293 43.175 65.5383 39.2517 62.899 36.755C60.331 34.187 56.3363 32.903 50.915 32.903H38.931V80.197ZM91.8249 94C91.1829 94 90.6479 93.786 90.2199 93.358C89.7919 92.8587 89.5779 92.3237 89.5779 91.753C89.5779 91.3963 89.6136 91.0753 89.6849 90.79L115.151 21.989C115.365 21.2043 115.793 20.5267 116.435 19.956C117.077 19.3853 117.969 19.1 119.11 19.1H132.806C133.947 19.1 134.839 19.3853 135.481 19.956C136.123 20.5267 136.551 21.2043 136.765 21.989L162.231 90.79C162.302 91.0753 162.338 91.3963 162.338 91.753C162.338 92.3237 162.124 92.8587 161.696 93.358C161.268 93.786 160.733 94 160.091 94H148.963C147.893 94 147.108 93.7503 146.609 93.251C146.11 92.7517 145.789 92.288 145.646 91.86L141.045 79.876H110.871L106.27 91.86C106.127 92.288 105.806 92.7517 105.307 93.251C104.808 93.7503 104.023 94 102.953 94H91.8249ZM114.83 66.073H136.979L125.958 35.257L114.83 66.073ZM197.365 95.07C190.517 95.07 184.775 94.0713 180.138 92.074C175.573 90.0767 172.113 87.473 169.759 84.263C167.405 81.053 166.157 77.629 166.014 73.991C166.014 73.4203 166.228 72.921 166.656 72.493C167.084 71.9937 167.619 71.744 168.261 71.744H179.71C180.638 71.744 181.351 71.958 181.85 72.386C182.35 72.7427 182.813 73.2063 183.241 73.777C183.741 74.9897 184.525 76.1667 185.595 77.308C186.737 78.4493 188.27 79.4123 190.196 80.197C192.122 80.9103 194.512 81.267 197.365 81.267C202.002 81.267 205.462 80.518 207.744 79.02C210.098 77.522 211.275 75.489 211.275 72.921C211.275 71.0663 210.633 69.5683 209.349 68.427C208.137 67.2857 206.175 66.2513 203.464 65.324C200.825 64.3967 197.294 63.398 192.871 62.328C187.521 61.1867 182.956 59.7243 179.175 57.941C175.466 56.0863 172.648 53.7323 170.722 50.879C168.868 47.9543 167.94 44.352 167.94 40.072C167.94 35.792 169.117 32.0113 171.471 28.73C173.825 25.3773 177.142 22.7737 181.422 20.919C185.702 18.993 190.803 18.03 196.723 18.03C201.503 18.03 205.711 18.672 209.349 19.956C213.059 21.24 216.126 22.9163 218.551 24.985C221.048 27.0537 222.938 29.265 224.222 31.619C225.506 33.973 226.184 36.2557 226.255 38.467C226.255 39.0377 226.041 39.5727 225.613 40.072C225.185 40.5 224.65 40.714 224.008 40.714H212.024C211.311 40.714 210.669 40.5713 210.098 40.286C209.528 40.0007 209.064 39.5013 208.707 38.788C208.279 36.9333 206.995 35.3283 204.855 33.973C202.787 32.5463 200.076 31.833 196.723 31.833C193.228 31.833 190.446 32.475 188.377 33.759C186.38 35.043 185.381 37.0047 185.381 39.644C185.381 41.356 185.881 42.8183 186.879 44.031C187.949 45.1723 189.697 46.2067 192.122 47.134C194.619 47.99 197.9 48.953 201.966 50.023C208.244 51.307 213.344 52.8407 217.267 54.624C221.191 56.4073 224.08 58.7257 225.934 61.579C227.789 64.361 228.716 67.892 228.716 72.172C228.716 76.9513 227.361 81.053 224.65 84.477C222.011 87.901 218.337 90.5403 213.629 92.395C208.993 94.1783 203.571 95.07 197.365 95.07ZM242.877 94C242.093 94 241.451 93.7503 240.951 93.251C240.452 92.7517 240.202 92.1097 240.202 91.325V21.775C240.202 20.9903 240.452 20.3483 240.951 19.849C241.451 19.3497 242.093 19.1 242.877 19.1H254.54C255.325 19.1 255.967 19.3497 256.466 19.849C256.966 20.3483 257.215 20.9903 257.215 21.775V48.525H286.212V21.775C286.212 20.9903 286.462 20.3483 286.961 19.849C287.461 19.3497 288.103 19.1 288.887 19.1H300.55C301.335 19.1 301.977 19.3497 302.476 19.849C302.976 20.3483 303.225 20.9903 303.225 21.775V91.325C303.225 92.1097 302.976 92.7517 302.476 93.251C301.977 93.7503 301.335 94 300.55 94H288.887C288.103 94 287.461 93.7503 286.961 93.251C286.462 92.7517 286.212 92.1097 286.212 91.325V63.719H257.215V91.325C257.215 92.1097 256.966 92.7517 256.466 93.251C255.967 93.7503 255.325 94 254.54 94H242.877Z" fill="white"/>
</svg>
