<svg width="194" height="80" viewBox="0 0 194 80" fill="none" xmlns="http://www.w3.org/2000/svg">
<path d="M0 10C0 4.47715 4.47715 0 10 0H60C71.0457 0 80 8.95431 80 20V70C80 75.5229 75.5229 80 70 80H20C8.95431 80 0 71.0457 0 60V10Z" fill="#181915"/>
<rect x="16.1924" y="30" width="23.7636" height="13" rx="5" transform="rotate(45 16.1924 30)" fill="white"/>
<rect x="56.1924" y="26" width="23.7636" height="13" rx="5" transform="rotate(45 56.1924 26)" fill="white"/>
<rect x="27.1924" y="19" width="49" height="13" rx="5" transform="rotate(45 27.1924 19)" fill="white"/>
<path d="M89.04 37C88.8053 37 88.6133 36.9253 88.464 36.776C88.3147 36.6267 88.24 36.4347 88.24 36.2V15.4C88.24 15.1653 88.3147 14.9733 88.464 14.824C88.6133 14.6747 88.8053 14.6 89.04 14.6H97.36C99.4507 14.6 101.232 14.9413 102.704 15.624C104.176 16.2853 105.307 17.2667 106.096 18.568C106.885 19.848 107.312 21.4373 107.376 23.336C107.397 24.2747 107.408 25.096 107.408 25.8C107.408 26.504 107.397 27.3147 107.376 28.232C107.291 30.216 106.864 31.8587 106.096 33.16C105.349 34.4613 104.251 35.432 102.8 36.072C101.371 36.6907 99.6107 37 97.52 37H89.04ZM93.968 32.392H97.36C98.2773 32.392 99.0347 32.2533 99.632 31.976C100.251 31.6773 100.709 31.2187 101.008 30.6C101.328 29.9813 101.499 29.1707 101.52 28.168C101.563 27.5493 101.584 26.9947 101.584 26.504C101.605 26.0133 101.605 25.5227 101.584 25.032C101.584 24.5413 101.563 23.9973 101.52 23.4C101.477 21.9493 101.093 20.8933 100.368 20.232C99.664 19.5493 98.608 19.208 97.2 19.208H93.968V32.392ZM109.398 37C109.227 37 109.067 36.936 108.918 36.808C108.79 36.6587 108.726 36.4987 108.726 36.328C108.726 36.2213 108.736 36.1253 108.758 36.04L116.278 15.496C116.342 15.2613 116.47 15.0587 116.661 14.888C116.875 14.696 117.163 14.6 117.526 14.6H122.262C122.624 14.6 122.902 14.696 123.094 14.888C123.307 15.0587 123.446 15.2613 123.51 15.496L130.998 36.04C131.04 36.1253 131.062 36.2213 131.062 36.328C131.062 36.4987 130.987 36.6587 130.838 36.808C130.71 36.936 130.55 37 130.358 37H126.422C126.102 37 125.856 36.9253 125.686 36.776C125.536 36.6053 125.44 36.456 125.398 36.328L124.15 33.064H115.606L114.39 36.328C114.347 36.456 114.251 36.6053 114.102 36.776C113.952 36.9253 113.696 37 113.334 37H109.398ZM116.918 28.456H122.87L119.862 20.008L116.918 28.456ZM141.592 37.32C139.459 37.32 137.688 37.0213 136.28 36.424C134.872 35.8053 133.805 35.0053 133.08 34.024C132.355 33.0427 131.971 31.9973 131.928 30.888C131.928 30.7173 131.992 30.568 132.12 30.44C132.269 30.2907 132.44 30.216 132.632 30.216H136.664C136.963 30.216 137.187 30.2693 137.336 30.376C137.507 30.4827 137.656 30.6213 137.784 30.792C137.955 31.112 138.189 31.4213 138.488 31.72C138.808 32.0187 139.213 32.264 139.704 32.456C140.216 32.6267 140.845 32.712 141.592 32.712C142.829 32.712 143.757 32.52 144.376 32.136C145.016 31.752 145.336 31.2293 145.336 30.568C145.336 30.0987 145.165 29.7147 144.824 29.416C144.483 29.096 143.928 28.8187 143.16 28.584C142.413 28.328 141.411 28.072 140.152 27.816C138.531 27.4747 137.144 27.0373 135.992 26.504C134.861 25.9493 133.997 25.2347 133.4 24.36C132.803 23.464 132.504 22.3547 132.504 21.032C132.504 19.7307 132.867 18.568 133.592 17.544C134.339 16.52 135.373 15.72 136.696 15.144C138.019 14.568 139.587 14.28 141.4 14.28C142.872 14.28 144.163 14.472 145.272 14.856C146.403 15.24 147.352 15.752 148.12 16.392C148.888 17.032 149.464 17.7147 149.848 18.44C150.253 19.144 150.467 19.8373 150.488 20.52C150.488 20.6907 150.424 20.8507 150.296 21C150.168 21.128 150.008 21.192 149.816 21.192H145.592C145.357 21.192 145.155 21.1493 144.984 21.064C144.813 20.9787 144.664 20.84 144.536 20.648C144.408 20.1787 144.067 19.7733 143.512 19.432C142.979 19.0693 142.275 18.888 141.4 18.888C140.461 18.888 139.725 19.0587 139.192 19.4C138.68 19.72 138.424 20.2213 138.424 20.904C138.424 21.3307 138.563 21.704 138.84 22.024C139.139 22.344 139.619 22.6213 140.28 22.856C140.963 23.0907 141.891 23.336 143.064 23.592C145.005 23.9547 146.573 24.4133 147.768 24.968C148.963 25.5013 149.837 26.2053 150.392 27.08C150.947 27.9333 151.224 29.0107 151.224 30.312C151.224 31.7627 150.808 33.0213 149.976 34.088C149.165 35.1333 148.035 35.9333 146.584 36.488C145.133 37.0427 143.469 37.32 141.592 37.32ZM155.228 37C154.993 37 154.801 36.9253 154.652 36.776C154.502 36.6267 154.428 36.4347 154.428 36.2V15.4C154.428 15.1653 154.502 14.9733 154.652 14.824C154.801 14.6747 154.993 14.6 155.228 14.6H159.356C159.59 14.6 159.782 14.6747 159.932 14.824C160.081 14.9733 160.156 15.1653 160.156 15.4V23.112H168.06V15.4C168.06 15.1653 168.134 14.9733 168.284 14.824C168.433 14.6747 168.625 14.6 168.86 14.6H172.988C173.222 14.6 173.414 14.6747 173.564 14.824C173.713 14.9733 173.788 15.1653 173.788 15.4V36.2C173.788 36.4347 173.713 36.6267 173.564 36.776C173.414 36.9253 173.222 37 172.988 37H168.86C168.625 37 168.433 36.9253 168.284 36.776C168.134 36.6267 168.06 36.4347 168.06 36.2V28.232H160.156V36.2C160.156 36.4347 160.081 36.6267 159.932 36.776C159.782 36.9253 159.59 37 159.356 37H155.228Z" fill="#181915"/>
<path d="M89.52 67C89.2853 67 89.104 66.936 88.976 66.808C88.848 66.6587 88.784 66.4773 88.784 66.264V45.368C88.784 45.1333 88.848 44.952 88.976 44.824C89.104 44.6747 89.2853 44.6 89.52 44.6H98.288C99.888 44.6 101.189 44.8667 102.192 45.4C103.216 45.912 103.963 46.616 104.432 47.512C104.923 48.408 105.168 49.4107 105.168 50.52C105.168 51.3947 105.019 52.152 104.72 52.792C104.443 53.4107 104.091 53.9227 103.664 54.328C103.237 54.712 102.821 55.0107 102.416 55.224C103.248 55.6293 103.984 56.2907 104.624 57.208C105.285 58.1253 105.616 59.2347 105.616 60.536C105.616 61.7093 105.349 62.7867 104.816 63.768C104.283 64.7493 103.483 65.5387 102.416 66.136C101.371 66.712 100.069 67 98.512 67H89.52ZM91.92 64.408H98.096C99.4827 64.408 100.549 64.0347 101.296 63.288C102.043 62.5413 102.416 61.624 102.416 60.536C102.416 59.4053 102.043 58.4773 101.296 57.752C100.549 57.0053 99.4827 56.632 98.096 56.632H91.92V64.408ZM91.92 54.072H97.808C99.1733 54.072 100.208 53.7627 100.912 53.144C101.616 52.504 101.968 51.64 101.968 50.552C101.968 49.464 101.616 48.632 100.912 48.056C100.208 47.48 99.1733 47.192 97.808 47.192H91.92V54.072ZM118.191 67.32C116.378 67.32 114.82 67.0107 113.519 66.392C112.218 65.752 111.215 64.7813 110.511 63.48C109.807 62.1573 109.412 60.504 109.327 58.52C109.306 57.5813 109.295 56.6853 109.295 55.832C109.295 54.9573 109.306 54.0507 109.327 53.112C109.412 51.1493 109.818 49.5173 110.543 48.216C111.29 46.8933 112.314 45.912 113.615 45.272C114.938 44.6107 116.463 44.28 118.191 44.28C119.94 44.28 121.466 44.6107 122.767 45.272C124.09 45.912 125.124 46.8933 125.871 48.216C126.618 49.5173 127.023 51.1493 127.087 53.112C127.13 54.0507 127.151 54.9573 127.151 55.832C127.151 56.6853 127.13 57.5813 127.087 58.52C127.023 60.504 126.628 62.1573 125.903 63.48C125.199 64.7813 124.196 65.752 122.895 66.392C121.594 67.0107 120.026 67.32 118.191 67.32ZM118.191 64.6C119.834 64.6 121.167 64.1093 122.191 63.128C123.236 62.1467 123.802 60.5573 123.887 58.36C123.93 57.4 123.951 56.5467 123.951 55.8C123.951 55.032 123.93 54.1787 123.887 53.24C123.844 51.768 123.567 50.5733 123.055 49.656C122.564 48.7387 121.903 48.0667 121.071 47.64C120.239 47.2133 119.279 47 118.191 47C117.146 47 116.207 47.2133 115.375 47.64C114.543 48.0667 113.871 48.7387 113.359 49.656C112.868 50.5733 112.591 51.768 112.527 53.24C112.506 54.1787 112.495 55.032 112.495 55.8C112.495 56.5467 112.506 57.4 112.527 58.36C112.612 60.5573 113.178 62.1467 114.223 63.128C115.268 64.1093 116.591 64.6 118.191 64.6ZM129.905 67C129.734 67 129.585 66.936 129.457 66.808C129.329 66.68 129.265 66.5307 129.265 66.36C129.265 66.2533 129.276 66.136 129.297 66.008L137.233 45.304C137.318 45.0907 137.436 44.92 137.585 44.792C137.734 44.664 137.958 44.6 138.257 44.6H140.433C140.71 44.6 140.924 44.664 141.073 44.792C141.244 44.92 141.372 45.0907 141.457 45.304L149.361 66.008C149.404 66.136 149.425 66.2533 149.425 66.36C149.425 66.5307 149.361 66.68 149.233 66.808C149.105 66.936 148.956 67 148.785 67H147.153C146.897 67 146.705 66.936 146.577 66.808C146.47 66.68 146.396 66.5627 146.353 66.456L144.593 61.912H134.097L132.337 66.456C132.316 66.5627 132.241 66.68 132.113 66.808C131.985 66.936 131.793 67 131.537 67H129.905ZM135.025 59.16H143.665L139.345 47.8L135.025 59.16ZM153.583 67C153.348 67 153.167 66.936 153.039 66.808C152.911 66.6587 152.847 66.4773 152.847 66.264V45.368C152.847 45.1333 152.911 44.952 153.039 44.824C153.167 44.6747 153.348 44.6 153.583 44.6H161.391C163.801 44.6 165.711 45.1653 167.119 46.296C168.527 47.4267 169.231 49.1013 169.231 51.32C169.231 52.9627 168.815 54.3067 167.983 55.352C167.172 56.376 166.063 57.0907 164.655 57.496L169.583 66.008C169.647 66.136 169.679 66.2533 169.679 66.36C169.679 66.5307 169.604 66.68 169.455 66.808C169.327 66.936 169.177 67 169.007 67H167.471C167.108 67 166.841 66.904 166.671 66.712C166.5 66.52 166.351 66.328 166.222 66.136L161.583 58.008H155.983V66.264C155.983 66.4773 155.908 66.6587 155.759 66.808C155.631 66.936 155.449 67 155.215 67H153.583ZM155.983 55.288H161.263C162.863 55.288 164.057 54.9573 164.847 54.296C165.636 53.6133 166.031 52.6107 166.031 51.288C166.031 49.9867 165.636 48.9947 164.847 48.312C164.079 47.6293 162.884 47.288 161.263 47.288H155.983V55.288ZM174.551 67C174.317 67 174.135 66.936 174.007 66.808C173.879 66.6587 173.815 66.4773 173.815 66.264V45.368C173.815 45.1333 173.879 44.952 174.007 44.824C174.135 44.6747 174.317 44.6 174.551 44.6H181.815C184.013 44.6 185.783 44.9307 187.127 45.592C188.471 46.2533 189.453 47.2347 190.071 48.536C190.69 49.816 191.01 51.3947 191.031 53.272C191.053 54.232 191.063 55.0747 191.063 55.8C191.063 56.5253 191.053 57.3573 191.031 58.296C190.989 60.2587 190.658 61.8907 190.039 63.192C189.442 64.472 188.482 65.432 187.159 66.072C185.858 66.6907 184.13 67 181.975 67H174.551ZM176.951 64.28H181.815C183.287 64.28 184.461 64.0773 185.335 63.672C186.21 63.2667 186.839 62.616 187.223 61.72C187.629 60.824 187.842 59.64 187.863 58.168C187.906 57.528 187.927 56.9733 187.927 56.504C187.927 56.0133 187.927 55.5333 187.927 55.064C187.927 54.5733 187.906 54.0187 187.863 53.4C187.821 51.3307 187.33 49.8053 186.391 48.824C185.453 47.8213 183.874 47.32 181.655 47.32H176.951V64.28Z" fill="#181915"/>
</svg>
